<svg version="1.1" viewBox="0.0 0.0 332.54068241469815 360.51181102362204" fill="none" stroke="none" stroke-linecap="square" stroke-miterlimit="10" xmlns:xlink="http://www.w3.org/1999/xlink" xmlns="http://www.w3.org/2000/svg"><clipPath id="p.0"><path d="m0 0l332.54068 0l0 360.5118l-332.54068 0l0 -360.5118z" clip-rule="nonzero"/></clipPath><g clip-path="url(#p.0)"><path fill="#000000" fill-opacity="0.0" d="m0 0l332.54068 0l0 360.5118l-332.54068 0z" fill-rule="evenodd"/><path fill="#000000" fill-opacity="0.0" d="m80.63584 54.845146l0 0c0 -18.32542 14.85569 -33.181107 33.181107 -33.181107l0 0c8.800179 0 17.239922 3.4958572 23.462578 9.718521c6.2226715 6.222662 9.718521 14.662405 9.718521 23.462584l0 0c0 18.325417 -14.855682 33.1811 -33.1811 33.1811l0 0c-18.325417 0 -33.181107 -14.855682 -33.181107 -33.1811z" fill-rule="evenodd"/><path stroke="#000000" stroke-width="3.0" stroke-linejoin="round" stroke-linecap="butt" d="m80.63584 54.845146l0 0c0 -18.32542 14.85569 -33.181107 33.181107 -33.181107l0 0c8.800179 0 17.239922 3.4958572 23.462578 9.718521c6.2226715 6.222662 9.718521 14.662405 9.718521 23.462584l0 0c0 18.325417 -14.855682 33.1811 -33.1811 33.1811l0 0c-18.325417 0 -33.181107 -14.855682 -33.181107 -33.1811z" fill-rule="evenodd"/><path fill="#000000" fill-opacity="0.0" d="m80.63584 305.8619l0 0c0 -18.325409 14.85569 -33.18109 33.181107 -33.18109l0 0c8.800179 0 17.239922 3.4958496 23.462578 9.718506c6.2226715 6.2226562 9.718521 14.662415 9.718521 23.462585l0 0c0 18.325409 -14.855682 33.18109 -33.1811 33.18109l0 0c-18.325417 0 -33.181107 -14.855682 -33.181107 -33.18109z" fill-rule="evenodd"/><path stroke="#000000" stroke-width="3.0" stroke-linejoin="round" stroke-linecap="butt" d="m80.63584 305.8619l0 0c0 -18.325409 14.85569 -33.18109 33.181107 -33.18109l0 0c8.800179 0 17.239922 3.4958496 23.462578 9.718506c6.2226715 6.2226562 9.718521 14.662415 9.718521 23.462585l0 0c0 18.325409 -14.855682 33.18109 -33.1811 33.18109l0 0c-18.325417 0 -33.181107 -14.855682 -33.181107 -33.18109z" fill-rule="evenodd"/><path fill="#000000" fill-opacity="0.0" d="m113.81695 88.026245l0 184.6614" fill-rule="evenodd"/><path stroke="#000000" stroke-width="2.0" stroke-linejoin="round" stroke-linecap="butt" d="m113.81695 88.026245l0 177.80725" fill-rule="evenodd"/><path fill="#000000" stroke="#000000" stroke-width="2.0" stroke-linecap="butt" d="m113.81695 265.8335l-2.2491684 -2.249176l2.2491684 6.179535l2.2491684 -6.179535z" fill-rule="evenodd"/><path fill="#000000" fill-opacity="0.0" d="m141.82791 34.41995l-45.6063 0l0 40.85039l45.6063 0z" fill-rule="evenodd"/><path fill="#000000" d="m107.24421 61.339947l3.53125 -5.03125l-3.265625 -4.640625l2.046875 0l1.484375 2.265625q0.421875 0.640625 0.671875 1.078125q0.40625 -0.59375 0.734375 -1.0625l1.640625 -2.28125l1.953125 0l-3.34375 4.546875l3.59375 5.125l-2.015625 0l-1.984375 -3.0l-0.515625 -0.8125l-2.546875 3.8125l-1.984375 0z" fill-rule="nonzero"/><path fill="#000000" d="m119.634834 67.35557l0.15625 0.96875q-0.453125 0.09375 -0.828125 0.09375q-0.59375 0 -0.921875 -0.1875q-0.328125 -0.1875 -0.46875 -0.484375q-0.125 -0.3125 -0.125 -1.296875l0 -3.7031212l-0.796875 0l0 -0.859375l0.796875 0l0 -1.59375l1.09375 -0.65625l0 2.25l1.09375 0l0 0.859375l-1.09375 0l0 3.7656212q0 0.46875 0.046875 0.609375q0.0625 0.125 0.1875 0.203125q0.140625 0.078125 0.390625 0.078125q0.171875 0 0.46875 -0.046875zm0.64297485 -1.6875l0 -1.09375l3.359375 0l0 1.09375l-3.359375 0zm8.391716 2.671875l-1.0937576 0l0 -6.968746q-0.40625 0.375 -1.046875 0.75q-0.640625 0.375 -1.140625 0.578125l0 -1.0625q0.90625 -0.4375 1.59375 -1.046875q0.6875 -0.609375 0.96875 -1.1875l0.7187576 0l0 8.937496z" fill-rule="nonzero"/><path fill="#000000" fill-opacity="0.0" d="m141.81613 285.44357l-45.6063 0l0 40.850403l45.6063 0z" fill-rule="evenodd"/><path fill="#000000" d="m107.45119 312.36356l0 -1.328125l6.15625 -7.078125q-1.046875 0.0625 -1.84375 0.0625l-3.9375 0l0 -1.328125l7.90625 0l0 1.078125l-5.25 6.140625l-1.0 1.125q1.09375 -0.078125 2.0625 -0.078125l4.46875 0l0 1.40625l-8.5625 0z" fill-rule="nonzero"/><path fill="#000000" d="m119.62306 318.37918l0.15625 0.96875q-0.453125 0.09375 -0.828125 0.09375q-0.59375 0 -0.921875 -0.1875q-0.328125 -0.1875 -0.46875 -0.484375q-0.125 -0.3125 -0.125 -1.296875l0 -3.703125l-0.796875 0l0 -0.859375l0.796875 0l0 -1.59375l1.09375 -0.65625l0 2.25l1.09375 0l0 0.859375l-1.09375 0l0 3.765625q0 0.46875 0.046875 0.609375q0.0625 0.125 0.1875 0.203125q0.140625 0.078125 0.390625 0.078125q0.171875 0 0.46875 -0.046875zm0.64297485 -1.6875l0 -1.09375l3.359375 0l0 1.09375l-3.359375 0zm8.391708 2.671875l-1.09375 0l0 -6.96875q-0.40625 0.375 -1.046875 0.75q-0.640625 0.375 -1.140625 0.578125l0 -1.0625q0.90625 -0.4375 1.59375 -1.046875q0.6875 -0.609375 0.96875 -1.1875l0.71875 0l0 8.9375z" fill-rule="nonzero"/><path fill="#000000" fill-opacity="0.0" d="m210.6483 54.84646l0 0c0 -18.32542 14.855682 -33.181107 33.18109 -33.181107l0 0c8.800186 0 17.239914 3.4958572 23.4626 9.718521c6.2226562 6.222662 9.718506 14.662405 9.718506 23.462584l0 0c0 18.325417 -14.855682 33.1811 -33.181107 33.1811l0 0c-18.325409 0 -33.18109 -14.855682 -33.18109 -33.1811z" fill-rule="evenodd"/><path stroke="#000000" stroke-width="3.0" stroke-linejoin="round" stroke-linecap="butt" d="m210.6483 54.84646l0 0c0 -18.32542 14.855682 -33.181107 33.18109 -33.181107l0 0c8.800186 0 17.239914 3.4958572 23.4626 9.718521c6.2226562 6.222662 9.718506 14.662405 9.718506 23.462584l0 0c0 18.325417 -14.855682 33.1811 -33.181107 33.1811l0 0c-18.325409 0 -33.18109 -14.855682 -33.18109 -33.1811z" fill-rule="evenodd"/><path fill="#000000" fill-opacity="0.0" d="m210.6483 305.86322l0 0c0 -18.325409 14.855682 -33.18109 33.18109 -33.18109l0 0c8.800186 0 17.239914 3.4958496 23.4626 9.718506c6.2226562 6.2226562 9.718506 14.662415 9.718506 23.462585l0 0c0 18.325409 -14.855682 33.18109 -33.181107 33.18109l0 0c-18.325409 0 -33.18109 -14.855682 -33.18109 -33.18109z" fill-rule="evenodd"/><path stroke="#000000" stroke-width="3.0" stroke-linejoin="round" stroke-linecap="butt" d="m210.6483 305.86322l0 0c0 -18.325409 14.855682 -33.18109 33.18109 -33.18109l0 0c8.800186 0 17.239914 3.4958496 23.4626 9.718506c6.2226562 6.2226562 9.718506 14.662415 9.718506 23.462585l0 0c0 18.325409 -14.855682 33.18109 -33.181107 33.18109l0 0c-18.325409 0 -33.18109 -14.855682 -33.18109 -33.18109z" fill-rule="evenodd"/><path fill="#000000" fill-opacity="0.0" d="m243.82939 88.02756l0 184.6614" fill-rule="evenodd"/><path stroke="#000000" stroke-width="2.0" stroke-linejoin="round" stroke-linecap="butt" d="m243.82939 88.02756l0 177.80725" fill-rule="evenodd"/><path fill="#000000" stroke="#000000" stroke-width="2.0" stroke-linecap="butt" d="m243.82939 265.8348l-2.2491608 -2.249176l2.2491608 6.179535l2.249176 -6.179535z" fill-rule="evenodd"/><path fill="#000000" fill-opacity="0.0" d="m261.4357 34.42126l-35.2126 0l0 40.85039l35.2126 0z" fill-rule="evenodd"/><path fill="#000000" d="m237.57822 61.34126l3.53125 -5.03125l-3.265625 -4.640625l2.046875 0l1.484375 2.265625q0.421875 0.640625 0.671875 1.078125q0.40625 -0.59375 0.734375 -1.0625l1.640625 -2.28125l1.953125 0l-3.34375 4.546875l3.59375 5.125l-2.015625 0l-1.984375 -3.0l-0.515625 -0.8125l-2.546875 3.8125l-1.984375 0z" fill-rule="nonzero"/><path fill="#000000" d="m249.96884 67.35688l0.15625 0.96875q-0.453125 0.09375 -0.828125 0.09375q-0.59375 0 -0.921875 -0.1875q-0.328125 -0.1875 -0.46875 -0.484375q-0.125 -0.3125 -0.125 -1.296875l0 -3.7031212l-0.796875 0l0 -0.859375l0.796875 0l0 -1.59375l1.09375 -0.65625l0 2.25l1.09375 0l0 0.859375l-1.09375 0l0 3.7656212q0 0.46875 0.046875 0.609375q0.0625 0.125 0.1875 0.203125q0.140625 0.078125 0.390625 0.078125q0.171875 0 0.46875 -0.046875z" fill-rule="nonzero"/><path fill="#000000" fill-opacity="0.0" d="m261.4357 285.4449l-35.2126 0l0 40.850403l35.2126 0z" fill-rule="evenodd"/><path fill="#000000" d="m237.79697 312.36487l0 -1.328125l6.15625 -7.078125q-1.046875 0.0625 -1.84375 0.0625l-3.9375 0l0 -1.328125l7.90625 0l0 1.078125l-5.25 6.140625l-1.0 1.125q1.09375 -0.078125 2.0625 -0.078125l4.46875 0l0 1.40625l-8.5625 0z" fill-rule="nonzero"/><path fill="#000000" d="m249.96884 318.3805l0.15625 0.96875q-0.453125 0.09375 -0.828125 0.09375q-0.59375 0 -0.921875 -0.1875q-0.328125 -0.1875 -0.46875 -0.484375q-0.125 -0.3125 -0.125 -1.296875l0 -3.703125l-0.796875 0l0 -0.859375l0.796875 0l0 -1.59375l1.09375 -0.65625l0 2.25l1.09375 0l0 0.859375l-1.09375 0l0 3.765625q0 0.46875 0.046875 0.609375q0.0625 0.125 0.1875 0.203125q0.140625 0.078125 0.390625 0.078125q0.171875 0 0.46875 -0.046875z" fill-rule="nonzero"/><path fill="#000000" fill-opacity="0.0" d="m146.99475 54.84646l63.65355 0" fill-rule="evenodd"/><path stroke="#000000" stroke-width="1.0" stroke-linejoin="round" stroke-linecap="butt" d="m146.99475 54.84646l57.65355 0" fill-rule="evenodd"/><path fill="#000000" stroke="#000000" stroke-width="1.0" stroke-linecap="butt" d="m204.6483 56.498188l4.538086 -1.6517296l-4.538086 -1.6517334z" fill-rule="evenodd"/><path fill="#000000" fill-opacity="0.0" d="m37.108288 53.83727l43.527554 1.0078773" fill-rule="evenodd"/><path stroke="#000000" stroke-width="1.0" stroke-linejoin="round" stroke-linecap="butt" d="m37.108284 53.83727l37.529175 0.8689842" fill-rule="evenodd"/><path fill="#000000" stroke="#000000" stroke-width="1.0" stroke-linecap="butt" d="m74.59922 56.357544l4.575119 -1.5462418l-4.4986496 -1.75634z" fill-rule="evenodd"/></g></svg>